<svg xmlns="http://www.w3.org/2000/svg" style="display:none">
  <symbol id="icon-lock" viewBox="0 0 24 24" aria-hidden="true">
    <path d="M12 2a5 5 0 00-5 5v3H5a3 3 0 00-3 3v7a3 3 0 003 3h14a3 3 0 003-3v-7a3 3 0 00-3-3h-2V7a5 5 0 00-5-5zm-3 5a3 3 0 116 0v3H9V7zm-2 5h10a1 1 0 011 1v7a1 1 0 01-1 1H7a1 1 0 01-1-1v-7a1 1 0 011-1zm5 2a2 2 0 00-1 3.732V19a1 1 0 002 0v-1.268A2 2 0 0012 14z" />
  </symbol>
  <symbol id="icon-moon" viewBox="0 0 24 24" aria-hidden="true">
    <path d="M21 12.79A9 9 0 0111.21 3 7 7 0 1019 15.79 9 9 0 0121 12.8z" />
  </symbol>
  <symbol id="icon-sun" viewBox="0 0 24 24" aria-hidden="true">
    <path d="M12 18a6 6 0 100-12 6 6 0 000 12zm0 4a1 1 0 011 1v1h-2v-1a1 1 0 011-1zm0-22a1 1 0 011-1v-1h-2v1a1 1 0 011 1zm10 9a1 1 0 010 2h-1v-2h1zM3 11v2H2a1 1 0 010-2h1zm17.071-6.071l-1.414 1.414-1.414-1.414 1.414-1.414 1.414 1.414zM6.757 18.343l-1.414 1.414-1.414-1.414 1.414-1.414 1.414 1.414zm0-12.728L5.343 4.2 6.757 2.786 8.17 4.2 6.757 5.615zM19.071 19.757l-1.414 1.414-1.414-1.414 1.414-1.414 1.414 1.414z" />
  </symbol>
  <symbol id="icon-menu" viewBox="0 0 24 24" aria-hidden="true">
    <path d="M3 6h18v2H3V6zm0 5h18v2H3v-2zm0 5h18v2H3v-2z" />
  </symbol>
  <symbol id="icon-close" viewBox="0 0 24 24" aria-hidden="true">
    <path d="M6.225 4.811L4.81 6.225 10.586 12l-5.775 5.775 1.415 1.414L12 13.414l5.775 5.775 1.414-1.414L13.414 12l5.775-5.775-1.414-1.414L12 10.586 6.225 4.81z" />
  </symbol>
  <symbol id="icon-search" viewBox="0 0 24 24" aria-hidden="true">
    <path d="M10 2a8 8 0 015.292 13.708l4 4-1.414 1.414-4-4A8 8 0 1110 2zm0 2a6 6 0 100 12 6 6 0 000-12z" />
  </symbol>
  <symbol id="icon-bell" viewBox="0 0 24 24" aria-hidden="true">
    <path d="M12 22a2 2 0 002-2h-4a2 2 0 002 2zm6-6V11a6 6 0 00-5-5.916V4a1 1 0 10-2 0v1.084A6 6 0 006 11v5l-2 2v1h16v-1l-2-2z" />
  </symbol>
  <symbol id="icon-dashboard" viewBox="0 0 24 24" aria-hidden="true">
    <path d="M3 13h8V3H3v10zm0 8h8v-6H3v6zm10 0h8V11h-8v10zm0-18v6h8V3h-8z" />
  </symbol>
  <symbol id="icon-calendar" viewBox="0 0 24 24" aria-hidden="true">
    <path d="M7 2a1 1 0 012 0v2h6V2a1 1 0 112 0v2h2a2 2 0 012 2v14a2 2 0 01-2 2H5a2 2 0 01-2-2V6a2 2 0 012-2h2V2zm12 6H5v12h14V8z" />
  </symbol>
  <symbol id="icon-tasks" viewBox="0 0 24 24" aria-hidden="true">
    <path d="M4 5h6v2H4V5zm0 6h10v2H4v-2zm0 6h14v2H4v-2zm13.293-9.707l1.414-1.414L21 9.172l-4.707 4.707-2.586-2.586 1.414-1.414 1.172 1.172 2-2z" />
  </symbol>
  <symbol id="icon-grade" viewBox="0 0 24 24" aria-hidden="true">
    <path d="M12 2l2.39 6.957L22 9.18l-5 4.937 1.18 6.883L12 17.77l-6.18 3.23L7 14.117 2 9.18l7.61-0.223z" />
  </symbol>
  <symbol id="icon-absent" viewBox="0 0 24 24" aria-hidden="true">
    <path d="M12 12a5 5 0 10-5-5 5 5 0 005 5zm0 2c-3.33 0-10 1.667-10 5v3h20v-3c0-3.333-6.67-5-10-5z" />
  </symbol>
  <symbol id="icon-mail" viewBox="0 0 24 24" aria-hidden="true">
    <path d="M2 4h20a1 1 0 011 1v14a1 1 0 01-1 1H2a1 1 0 01-1-1V5a1 1 0 011-1zm2 4.236V18h16V8.236l-8 4.8-8-4.8zM4.5 6l7.5 4.5L19.5 6H4.5z" />
  </symbol>
  <symbol id="icon-file" viewBox="0 0 24 24" aria-hidden="true">
    <path d="M6 2a2 2 0 00-2 2v16a2 2 0 002 2h12a2 2 0 002-2V9.828a2 2 0 00-.586-1.414l-4.828-4.828A2 2 0 0013.172 3H6zm0 2h7v5a1 1 0 001 1h5v9H6V4zm9 0.414L18.586 8H15V4.414z" />
  </symbol>
</svg>
